<mxfile host="app.diagrams.net" modified="2022-01-14T08:45:05.868Z" agent="5.0 (Windows NT 10.0; Win64; x64) AppleWebKit/537.36 (KHTML, like Gecko) Chrome/97.0.4692.71 Safari/537.36 Edg/97.0.1072.55" etag="Xe6-IbEl4OaprBJASInQ" version="16.2.6" type="github">
  <diagram id="IixE7KLp5JFmSRTFd1Oh" name="Page-1">
    <mxGraphModel dx="1597" dy="1978" grid="1" gridSize="10" guides="1" tooltips="1" connect="1" arrows="1" fold="1" page="1" pageScale="1" pageWidth="850" pageHeight="1100" math="0" shadow="0">
      <root>
        <mxCell id="0" />
        <mxCell id="1" parent="0" />
        <mxCell id="cQyrNO_EFoRFJJbbUp6L-1" value="Thủ thư" style="shape=umlActor;verticalLabelPosition=bottom;verticalAlign=top;html=1;outlineConnect=0;" vertex="1" parent="1">
          <mxGeometry x="60" y="110" width="30" height="60" as="geometry" />
        </mxCell>
        <mxCell id="cQyrNO_EFoRFJJbbUp6L-3" value="Thành viên" style="shape=umlActor;verticalLabelPosition=bottom;verticalAlign=top;html=1;outlineConnect=0;" vertex="1" parent="1">
          <mxGeometry x="770" y="120" width="30" height="60" as="geometry" />
        </mxCell>
        <mxCell id="cQyrNO_EFoRFJJbbUp6L-5" value="Khách" style="shape=umlActor;verticalLabelPosition=bottom;verticalAlign=top;html=1;outlineConnect=0;" vertex="1" parent="1">
          <mxGeometry x="60" y="420" width="30" height="60" as="geometry" />
        </mxCell>
        <mxCell id="cQyrNO_EFoRFJJbbUp6L-6" value="Quản lý tài liệu" style="ellipse;whiteSpace=wrap;html=1;" vertex="1" parent="1">
          <mxGeometry x="190" y="-10" width="90" height="60" as="geometry" />
        </mxCell>
        <mxCell id="cQyrNO_EFoRFJJbbUp6L-8" value="Quản lý thành viên" style="ellipse;whiteSpace=wrap;html=1;" vertex="1" parent="1">
          <mxGeometry x="190" y="60" width="90" height="60" as="geometry" />
        </mxCell>
        <mxCell id="cQyrNO_EFoRFJJbbUp6L-9" value="Quản lý lịch đặt mượn tài liệu" style="ellipse;whiteSpace=wrap;html=1;" vertex="1" parent="1">
          <mxGeometry x="190" y="130" width="90" height="60" as="geometry" />
        </mxCell>
        <mxCell id="cQyrNO_EFoRFJJbbUp6L-10" value="Quản lý phiếu mượn" style="ellipse;whiteSpace=wrap;html=1;" vertex="1" parent="1">
          <mxGeometry x="190" y="200" width="90" height="60" as="geometry" />
        </mxCell>
        <mxCell id="cQyrNO_EFoRFJJbbUp6L-11" value="Thống kê" style="ellipse;whiteSpace=wrap;html=1;" vertex="1" parent="1">
          <mxGeometry x="190" y="270" width="90" height="60" as="geometry" />
        </mxCell>
        <mxCell id="cQyrNO_EFoRFJJbbUp6L-16" value="" style="endArrow=none;html=1;rounded=0;entryX=0;entryY=0.5;entryDx=0;entryDy=0;" edge="1" parent="1" target="cQyrNO_EFoRFJJbbUp6L-6">
          <mxGeometry width="50" height="50" relative="1" as="geometry">
            <mxPoint x="100" y="140" as="sourcePoint" />
            <mxPoint x="150" y="30" as="targetPoint" />
          </mxGeometry>
        </mxCell>
        <mxCell id="cQyrNO_EFoRFJJbbUp6L-17" value="" style="endArrow=none;html=1;rounded=0;entryX=0;entryY=0.5;entryDx=0;entryDy=0;" edge="1" parent="1" target="cQyrNO_EFoRFJJbbUp6L-8">
          <mxGeometry width="50" height="50" relative="1" as="geometry">
            <mxPoint x="100" y="140" as="sourcePoint" />
            <mxPoint x="200" y="10" as="targetPoint" />
          </mxGeometry>
        </mxCell>
        <mxCell id="cQyrNO_EFoRFJJbbUp6L-18" value="" style="endArrow=none;html=1;rounded=0;entryX=0;entryY=0.5;entryDx=0;entryDy=0;" edge="1" parent="1" target="cQyrNO_EFoRFJJbbUp6L-9">
          <mxGeometry width="50" height="50" relative="1" as="geometry">
            <mxPoint x="100" y="140" as="sourcePoint" />
            <mxPoint x="210" y="20" as="targetPoint" />
          </mxGeometry>
        </mxCell>
        <mxCell id="cQyrNO_EFoRFJJbbUp6L-19" value="" style="endArrow=none;html=1;rounded=0;entryX=0;entryY=0.5;entryDx=0;entryDy=0;" edge="1" parent="1" target="cQyrNO_EFoRFJJbbUp6L-10">
          <mxGeometry width="50" height="50" relative="1" as="geometry">
            <mxPoint x="100" y="140" as="sourcePoint" />
            <mxPoint x="220" y="30" as="targetPoint" />
          </mxGeometry>
        </mxCell>
        <mxCell id="cQyrNO_EFoRFJJbbUp6L-20" value="" style="endArrow=none;html=1;rounded=0;entryX=0;entryY=0.5;entryDx=0;entryDy=0;" edge="1" parent="1" target="cQyrNO_EFoRFJJbbUp6L-11">
          <mxGeometry width="50" height="50" relative="1" as="geometry">
            <mxPoint x="100" y="140" as="sourcePoint" />
            <mxPoint x="230" y="40" as="targetPoint" />
          </mxGeometry>
        </mxCell>
        <mxCell id="cQyrNO_EFoRFJJbbUp6L-21" value="Tìm kiếm tài liệu" style="ellipse;whiteSpace=wrap;html=1;" vertex="1" parent="1">
          <mxGeometry x="320" y="430" width="90" height="60" as="geometry" />
        </mxCell>
        <mxCell id="cQyrNO_EFoRFJJbbUp6L-22" value="" style="endArrow=none;html=1;rounded=0;entryX=0;entryY=0.5;entryDx=0;entryDy=0;" edge="1" parent="1" target="cQyrNO_EFoRFJJbbUp6L-21">
          <mxGeometry width="50" height="50" relative="1" as="geometry">
            <mxPoint x="100" y="460" as="sourcePoint" />
            <mxPoint x="230" y="420" as="targetPoint" />
          </mxGeometry>
        </mxCell>
        <mxCell id="cQyrNO_EFoRFJJbbUp6L-23" value="" style="endArrow=none;html=1;rounded=0;exitX=1;exitY=0.5;exitDx=0;exitDy=0;" edge="1" parent="1" source="cQyrNO_EFoRFJJbbUp6L-21">
          <mxGeometry width="50" height="50" relative="1" as="geometry">
            <mxPoint x="510" y="260" as="sourcePoint" />
            <mxPoint x="760" y="160" as="targetPoint" />
          </mxGeometry>
        </mxCell>
        <mxCell id="cQyrNO_EFoRFJJbbUp6L-24" value="Đăng nhập" style="ellipse;whiteSpace=wrap;html=1;" vertex="1" parent="1">
          <mxGeometry x="440" y="130" width="90" height="60" as="geometry" />
        </mxCell>
        <mxCell id="cQyrNO_EFoRFJJbbUp6L-28" value="" style="endArrow=classic;html=1;rounded=0;exitX=1;exitY=0.5;exitDx=0;exitDy=0;entryX=0.269;entryY=0.044;entryDx=0;entryDy=0;entryPerimeter=0;" edge="1" parent="1" source="cQyrNO_EFoRFJJbbUp6L-6" target="cQyrNO_EFoRFJJbbUp6L-24">
          <mxGeometry width="50" height="50" relative="1" as="geometry">
            <mxPoint x="400" y="190" as="sourcePoint" />
            <mxPoint x="450" y="140" as="targetPoint" />
          </mxGeometry>
        </mxCell>
        <mxCell id="cQyrNO_EFoRFJJbbUp6L-29" value="" style="endArrow=classic;html=1;rounded=0;exitX=1;exitY=0.5;exitDx=0;exitDy=0;entryX=0;entryY=0;entryDx=0;entryDy=0;" edge="1" parent="1" source="cQyrNO_EFoRFJJbbUp6L-8" target="cQyrNO_EFoRFJJbbUp6L-24">
          <mxGeometry width="50" height="50" relative="1" as="geometry">
            <mxPoint x="290" y="30" as="sourcePoint" />
            <mxPoint x="440" y="160" as="targetPoint" />
          </mxGeometry>
        </mxCell>
        <mxCell id="cQyrNO_EFoRFJJbbUp6L-30" value="" style="endArrow=classic;html=1;rounded=0;exitX=1;exitY=0.5;exitDx=0;exitDy=0;entryX=0.022;entryY=0.377;entryDx=0;entryDy=0;entryPerimeter=0;" edge="1" parent="1" source="cQyrNO_EFoRFJJbbUp6L-9" target="cQyrNO_EFoRFJJbbUp6L-24">
          <mxGeometry width="50" height="50" relative="1" as="geometry">
            <mxPoint x="290" y="100" as="sourcePoint" />
            <mxPoint x="450" y="150" as="targetPoint" />
          </mxGeometry>
        </mxCell>
        <mxCell id="cQyrNO_EFoRFJJbbUp6L-31" value="" style="endArrow=classic;html=1;rounded=0;exitX=1;exitY=0.5;exitDx=0;exitDy=0;entryX=0.05;entryY=0.7;entryDx=0;entryDy=0;entryPerimeter=0;" edge="1" parent="1" source="cQyrNO_EFoRFJJbbUp6L-10" target="cQyrNO_EFoRFJJbbUp6L-24">
          <mxGeometry width="50" height="50" relative="1" as="geometry">
            <mxPoint x="300" y="110" as="sourcePoint" />
            <mxPoint x="460" y="180" as="targetPoint" />
          </mxGeometry>
        </mxCell>
        <mxCell id="cQyrNO_EFoRFJJbbUp6L-32" value="" style="endArrow=classic;html=1;rounded=0;exitX=1;exitY=0.5;exitDx=0;exitDy=0;entryX=0.221;entryY=0.929;entryDx=0;entryDy=0;entryPerimeter=0;" edge="1" parent="1" source="cQyrNO_EFoRFJJbbUp6L-11" target="cQyrNO_EFoRFJJbbUp6L-24">
          <mxGeometry width="50" height="50" relative="1" as="geometry">
            <mxPoint x="310" y="120" as="sourcePoint" />
            <mxPoint x="470" y="190" as="targetPoint" />
          </mxGeometry>
        </mxCell>
        <mxCell id="cQyrNO_EFoRFJJbbUp6L-34" value="&amp;lt;&amp;lt;include&amp;gt;&amp;gt;" style="text;html=1;align=center;verticalAlign=middle;resizable=0;points=[];autosize=1;strokeColor=none;fillColor=none;rotation=15;" vertex="1" parent="1">
          <mxGeometry x="340" y="100" width="80" height="20" as="geometry" />
        </mxCell>
        <mxCell id="cQyrNO_EFoRFJJbbUp6L-35" value="&amp;lt;&amp;lt;include&amp;gt;&amp;gt;" style="text;html=1;align=center;verticalAlign=middle;resizable=0;points=[];autosize=1;strokeColor=none;fillColor=none;rotation=-5;" vertex="1" parent="1">
          <mxGeometry x="320" y="140" width="80" height="20" as="geometry" />
        </mxCell>
        <mxCell id="cQyrNO_EFoRFJJbbUp6L-36" value="&amp;lt;&amp;lt;include&amp;gt;&amp;gt;" style="text;html=1;align=center;verticalAlign=middle;resizable=0;points=[];autosize=1;strokeColor=none;fillColor=none;rotation=-20;" vertex="1" parent="1">
          <mxGeometry x="320" y="180" width="80" height="20" as="geometry" />
        </mxCell>
        <mxCell id="cQyrNO_EFoRFJJbbUp6L-37" value="&amp;lt;&amp;lt;include&amp;gt;&amp;gt;" style="text;html=1;align=center;verticalAlign=middle;resizable=0;points=[];autosize=1;strokeColor=none;fillColor=none;rotation=-35;" vertex="1" parent="1">
          <mxGeometry x="330" y="220" width="80" height="20" as="geometry" />
        </mxCell>
        <mxCell id="cQyrNO_EFoRFJJbbUp6L-39" value="" style="endArrow=classic;html=1;rounded=0;entryX=0.656;entryY=0.039;entryDx=0;entryDy=0;exitX=0;exitY=0.5;exitDx=0;exitDy=0;entryPerimeter=0;" edge="1" parent="1" source="cQyrNO_EFoRFJJbbUp6L-43" target="cQyrNO_EFoRFJJbbUp6L-24">
          <mxGeometry width="50" height="50" relative="1" as="geometry">
            <mxPoint x="710" y="160" as="sourcePoint" />
            <mxPoint x="720" y="120" as="targetPoint" />
          </mxGeometry>
        </mxCell>
        <mxCell id="cQyrNO_EFoRFJJbbUp6L-40" value="&amp;lt;&amp;lt;include&amp;gt;&amp;gt;" style="text;html=1;align=center;verticalAlign=middle;resizable=0;points=[];autosize=1;strokeColor=none;fillColor=none;rotation=-50;" vertex="1" parent="1">
          <mxGeometry x="505" y="60" width="80" height="20" as="geometry" />
        </mxCell>
        <mxCell id="cQyrNO_EFoRFJJbbUp6L-41" value="Đăng ký" style="ellipse;whiteSpace=wrap;html=1;" vertex="1" parent="1">
          <mxGeometry x="320" y="500" width="90" height="60" as="geometry" />
        </mxCell>
        <mxCell id="cQyrNO_EFoRFJJbbUp6L-42" value="" style="endArrow=none;html=1;rounded=0;entryX=0;entryY=0.5;entryDx=0;entryDy=0;" edge="1" parent="1" target="cQyrNO_EFoRFJJbbUp6L-41">
          <mxGeometry width="50" height="50" relative="1" as="geometry">
            <mxPoint x="100" y="460" as="sourcePoint" />
            <mxPoint x="150" y="410" as="targetPoint" />
          </mxGeometry>
        </mxCell>
        <mxCell id="cQyrNO_EFoRFJJbbUp6L-43" value="Chỉnh sửa&amp;nbsp; thông tin tài khoản" style="ellipse;whiteSpace=wrap;html=1;" vertex="1" parent="1">
          <mxGeometry x="600" y="-10" width="90" height="60" as="geometry" />
        </mxCell>
        <mxCell id="cQyrNO_EFoRFJJbbUp6L-44" value="" style="endArrow=none;html=1;rounded=0;exitX=1;exitY=0.5;exitDx=0;exitDy=0;" edge="1" parent="1" source="cQyrNO_EFoRFJJbbUp6L-43">
          <mxGeometry width="50" height="50" relative="1" as="geometry">
            <mxPoint x="750" y="290" as="sourcePoint" />
            <mxPoint x="760" y="160" as="targetPoint" />
          </mxGeometry>
        </mxCell>
        <mxCell id="cQyrNO_EFoRFJJbbUp6L-48" value="Đặt mượn tài liệu" style="ellipse;whiteSpace=wrap;html=1;" vertex="1" parent="1">
          <mxGeometry x="600" y="60" width="90" height="60" as="geometry" />
        </mxCell>
        <mxCell id="cQyrNO_EFoRFJJbbUp6L-49" value="" style="endArrow=none;html=1;rounded=0;exitX=1;exitY=0.5;exitDx=0;exitDy=0;" edge="1" parent="1" source="cQyrNO_EFoRFJJbbUp6L-48">
          <mxGeometry width="50" height="50" relative="1" as="geometry">
            <mxPoint x="700" y="30" as="sourcePoint" />
            <mxPoint x="760" y="160" as="targetPoint" />
          </mxGeometry>
        </mxCell>
        <mxCell id="cQyrNO_EFoRFJJbbUp6L-50" value="&amp;lt;&amp;lt;include&amp;gt;&amp;gt;" style="text;html=1;align=center;verticalAlign=middle;resizable=0;points=[];autosize=1;strokeColor=none;fillColor=none;rotation=-30;" vertex="1" parent="1">
          <mxGeometry x="520" y="90" width="80" height="20" as="geometry" />
        </mxCell>
        <mxCell id="cQyrNO_EFoRFJJbbUp6L-51" value="" style="endArrow=classic;html=1;rounded=0;entryX=1;entryY=0;entryDx=0;entryDy=0;exitX=0;exitY=0.5;exitDx=0;exitDy=0;" edge="1" parent="1" source="cQyrNO_EFoRFJJbbUp6L-48" target="cQyrNO_EFoRFJJbbUp6L-24">
          <mxGeometry width="50" height="50" relative="1" as="geometry">
            <mxPoint x="620.48" y="33.83" as="sourcePoint" />
            <mxPoint x="519.52" y="146.16999999999993" as="targetPoint" />
          </mxGeometry>
        </mxCell>
        <mxCell id="cQyrNO_EFoRFJJbbUp6L-53" value="Xem danh mục tài liệu" style="ellipse;whiteSpace=wrap;html=1;" vertex="1" parent="1">
          <mxGeometry x="320" y="360" width="90" height="60" as="geometry" />
        </mxCell>
        <mxCell id="cQyrNO_EFoRFJJbbUp6L-54" value="" style="endArrow=none;html=1;rounded=0;entryX=0;entryY=0.5;entryDx=0;entryDy=0;" edge="1" parent="1" target="cQyrNO_EFoRFJJbbUp6L-53">
          <mxGeometry width="50" height="50" relative="1" as="geometry">
            <mxPoint x="100" y="460" as="sourcePoint" />
            <mxPoint x="330" y="470" as="targetPoint" />
          </mxGeometry>
        </mxCell>
        <mxCell id="cQyrNO_EFoRFJJbbUp6L-55" value="" style="endArrow=none;html=1;rounded=0;entryX=1;entryY=0.5;entryDx=0;entryDy=0;" edge="1" parent="1" target="cQyrNO_EFoRFJJbbUp6L-53">
          <mxGeometry width="50" height="50" relative="1" as="geometry">
            <mxPoint x="760" y="160" as="sourcePoint" />
            <mxPoint x="340" y="480" as="targetPoint" />
          </mxGeometry>
        </mxCell>
        <mxCell id="cQyrNO_EFoRFJJbbUp6L-56" value="Quản lý đăng ký thành viên" style="ellipse;whiteSpace=wrap;html=1;" vertex="1" parent="1">
          <mxGeometry x="190" y="-80" width="90" height="60" as="geometry" />
        </mxCell>
        <mxCell id="cQyrNO_EFoRFJJbbUp6L-57" value="" style="endArrow=none;html=1;rounded=0;entryX=0;entryY=0.5;entryDx=0;entryDy=0;" edge="1" parent="1" target="cQyrNO_EFoRFJJbbUp6L-56">
          <mxGeometry width="50" height="50" relative="1" as="geometry">
            <mxPoint x="100" y="140" as="sourcePoint" />
            <mxPoint x="200" y="30" as="targetPoint" />
          </mxGeometry>
        </mxCell>
        <mxCell id="cQyrNO_EFoRFJJbbUp6L-59" value="" style="endArrow=classic;html=1;rounded=0;exitX=1.019;exitY=0.628;exitDx=0;exitDy=0;entryX=0.38;entryY=0;entryDx=0;entryDy=0;entryPerimeter=0;exitPerimeter=0;" edge="1" parent="1" source="cQyrNO_EFoRFJJbbUp6L-56" target="cQyrNO_EFoRFJJbbUp6L-24">
          <mxGeometry width="50" height="50" relative="1" as="geometry">
            <mxPoint x="290" y="30" as="sourcePoint" />
            <mxPoint x="474.21000000000004" y="142.6400000000001" as="targetPoint" />
          </mxGeometry>
        </mxCell>
        <mxCell id="cQyrNO_EFoRFJJbbUp6L-61" value="&amp;lt;&amp;lt;include&amp;gt;&amp;gt;" style="text;html=1;align=center;verticalAlign=middle;resizable=0;points=[];autosize=1;strokeColor=none;fillColor=none;rotation=30;" vertex="1" parent="1">
          <mxGeometry x="340" y="60" width="80" height="20" as="geometry" />
        </mxCell>
        <mxCell id="cQyrNO_EFoRFJJbbUp6L-62" value="&amp;lt;&amp;lt;include&amp;gt;&amp;gt;" style="text;html=1;align=center;verticalAlign=middle;resizable=0;points=[];autosize=1;strokeColor=none;fillColor=none;rotation=45;" vertex="1" parent="1">
          <mxGeometry x="370" y="40" width="80" height="20" as="geometry" />
        </mxCell>
        <mxCell id="cQyrNO_EFoRFJJbbUp6L-63" value="Xem tài liệu đầy đủ" style="ellipse;whiteSpace=wrap;html=1;" vertex="1" parent="1">
          <mxGeometry x="600" y="-80" width="90" height="60" as="geometry" />
        </mxCell>
        <mxCell id="cQyrNO_EFoRFJJbbUp6L-64" value="" style="endArrow=none;html=1;rounded=0;exitX=1;exitY=0.5;exitDx=0;exitDy=0;" edge="1" parent="1" source="cQyrNO_EFoRFJJbbUp6L-63">
          <mxGeometry width="50" height="50" relative="1" as="geometry">
            <mxPoint x="700" y="30" as="sourcePoint" />
            <mxPoint x="760" y="160" as="targetPoint" />
          </mxGeometry>
        </mxCell>
        <mxCell id="cQyrNO_EFoRFJJbbUp6L-65" value="" style="endArrow=classic;html=1;rounded=0;entryX=0.5;entryY=0;entryDx=0;entryDy=0;exitX=0;exitY=0.5;exitDx=0;exitDy=0;" edge="1" parent="1" source="cQyrNO_EFoRFJJbbUp6L-63" target="cQyrNO_EFoRFJJbbUp6L-24">
          <mxGeometry width="50" height="50" relative="1" as="geometry">
            <mxPoint x="610" y="30" as="sourcePoint" />
            <mxPoint x="509.03999999999996" y="142.33999999999992" as="targetPoint" />
          </mxGeometry>
        </mxCell>
        <mxCell id="cQyrNO_EFoRFJJbbUp6L-66" value="&amp;lt;&amp;lt;include&amp;gt;&amp;gt;" style="text;html=1;align=center;verticalAlign=middle;resizable=0;points=[];autosize=1;strokeColor=none;fillColor=none;rotation=-60;" vertex="1" parent="1">
          <mxGeometry x="480" y="40" width="80" height="20" as="geometry" />
        </mxCell>
        <mxCell id="cQyrNO_EFoRFJJbbUp6L-67" value="Xem tài liệu giới hạn" style="ellipse;whiteSpace=wrap;html=1;" vertex="1" parent="1">
          <mxGeometry x="320" y="290" width="90" height="60" as="geometry" />
        </mxCell>
        <mxCell id="cQyrNO_EFoRFJJbbUp6L-68" value="" style="endArrow=none;html=1;rounded=0;entryX=0;entryY=0.5;entryDx=0;entryDy=0;" edge="1" parent="1" target="cQyrNO_EFoRFJJbbUp6L-67">
          <mxGeometry width="50" height="50" relative="1" as="geometry">
            <mxPoint x="100" y="460" as="sourcePoint" />
            <mxPoint x="330" y="400" as="targetPoint" />
          </mxGeometry>
        </mxCell>
      </root>
    </mxGraphModel>
  </diagram>
</mxfile>
